<svg width="24" height="25" viewBox="0 0 24 25" fill="none" xmlns="http://www.w3.org/2000/svg">
<circle cx="12" cy="12.0996" r="9.3" fill="#404040" stroke="#404040" stroke-width="1.4"/>
<path fill-rule="evenodd" clip-rule="evenodd" d="M18.2362 19.9173C16.5264 21.2831 14.3585 22.0996 12 22.0996C9.64146 22.0996 7.47363 21.2831 5.76375 19.9173C6.35355 17.0129 8.92149 14.8269 12 14.8269C15.0785 14.8269 17.6465 17.0129 18.2362 19.9173Z" fill="white"/>
<path fill-rule="evenodd" clip-rule="evenodd" d="M18.2362 19.9173C16.5264 21.2831 14.3585 22.0996 12 22.0996C9.64146 22.0996 7.47363 21.2831 5.76375 19.9173C6.35355 17.0129 8.92149 14.8269 12 14.8269C15.0785 14.8269 17.6465 17.0129 18.2362 19.9173Z" fill="white"/>
<path d="M12 14.8269C14.5104 14.8269 16.5455 12.7918 16.5455 10.2814C16.5455 7.77104 14.5104 5.73597 12 5.73597C9.48961 5.73597 7.45455 7.77104 7.45455 10.2814C7.45455 12.7918 9.48961 14.8269 12 14.8269Z" fill="white"/>
</svg>
