<svg width="24" height="24" viewBox="0 0 24 24" fill="none" xmlns="http://www.w3.org/2000/svg">
<path fill-rule="evenodd" clip-rule="evenodd" d="M24 16.2353V2.58824C24 1.20784 22.6 0 21 0H3C1.4 0 0 1.20784 0 2.58824V19.6863C0 22.102 2.2 24 5 24H23C23.4 24 23.6 23.8275 23.8 23.6549C24 23.4824 24 23.1373 23.8 22.7922L22 19.6863L23.8 16.5804C24 16.5804 24 16.4078 24 16.2353ZM2.2 20.549C2.6 21.5843 3.6 22.2745 5 22.2745H21.4L20.4 20.549H2.2ZM2.2 18.8235H20.4L21.4 17.098H5C3.8 17.098 2.6 17.7882 2.2 18.8235ZM5 15.3726H22V2.58824C22 2.07059 21.6 1.72549 21 1.72549H3C2.4 1.72549 2 2.07059 2 2.58824V16.2353C2.8 15.7176 3.8 15.3726 5 15.3726Z" fill="#404040"/>
<path d="M22 15.3726H5C3.8 15.3726 2.8 15.7176 2 16.2353V2.58824C2 2.07059 2.4 1.72549 3 1.72549H21C21.6 1.72549 22 2.07059 22 2.58824V15.3726Z" fill="#404040"/>
</svg>
