<svg width="24" height="25" viewBox="0 0 24 25" fill="none" xmlns="http://www.w3.org/2000/svg">
<path fill-rule="evenodd" clip-rule="evenodd" d="M15 2.09961H6C5.46957 2.09961 4.96086 2.31032 4.58579 2.6854C4.21071 3.06047 4 3.56918 4 4.09961V20.0996C4 20.63 4.21071 21.1388 4.58579 21.5138C4.96086 21.8889 5.46957 22.0996 6 22.0996H18C18.5304 22.0996 19.0391 21.8889 19.4142 21.5138C19.7893 21.1388 20 20.63 20 20.0996V7.09961L15 2.09961ZM10 18.0996C11.1046 18.0996 12 17.2042 12 16.0996C12 14.995 11.1046 14.0996 10 14.0996C8.89543 14.0996 8 14.995 8 16.0996C8 17.2042 8.89543 18.0996 10 18.0996Z" fill="#404040"/>
<path d="M12 16.0996C12 17.2042 11.1046 18.0996 10 18.0996C8.89543 18.0996 8 17.2042 8 16.0996C8 14.995 8.89543 14.0996 10 14.0996C11.1046 14.0996 12 14.995 12 16.0996Z" fill="#404040"/>
<path d="M16 10.0996L11.5 14.5996M15 11.0996L16 12.0996M15 2.09961H6C5.46957 2.09961 4.96086 2.31032 4.58579 2.6854C4.21071 3.06047 4 3.56918 4 4.09961V20.0996C4 20.63 4.21071 21.1387 4.58579 21.5138C4.96086 21.8889 5.46957 22.0996 6 22.0996H18C18.5304 22.0996 19.0391 21.8889 19.4142 21.5138C19.7893 21.1387 20 20.63 20 20.0996V7.09961L15 2.09961ZM12 16.0996C12 17.2042 11.1046 18.0996 10 18.0996C8.89543 18.0996 8 17.2042 8 16.0996C8 14.995 8.89543 14.0996 10 14.0996C11.1046 14.0996 12 14.995 12 16.0996Z" stroke="white" stroke-width="1.4" stroke-linecap="round" stroke-linejoin="round"/>
</svg>
