<svg width="22" height="22" viewBox="0 0 22 22" fill="none" xmlns="http://www.w3.org/2000/svg">
<path d="M7 3H4C2.89543 3 2 3.89543 2 5V19C2 20.1046 2.89543 21 4 21H18C19.1046 21 20 20.1046 20 19V5C20 3.89543 19.1046 3 18 3H15H7Z" fill="#404040"/>
<path d="M4 3H18M4 3C2.89543 3 2 3.89543 2 5V19C2 20.1046 2.89543 21 4 21H18C19.1046 21 20 20.1046 20 19V5C20 3.89543 19.1046 3 18 3M4 3H7M18 3H15M7 1V3M7 3H15M15 1V3" stroke="#404040" stroke-width="1.6" stroke-linecap="round" stroke-linejoin="round"/>
<path d="M15 17C15 15.9391 14.5786 14.9217 13.8284 14.1716C13.0783 13.4214 12.0609 13 11 13M11 13C9.93913 13 8.92172 13.4214 8.17157 14.1716C7.42143 14.9217 7 15.9391 7 17M11 13C12.6569 13 14 11.6569 14 10C14 8.34315 12.6569 7 11 7C9.34315 7 8 8.34315 8 10C8 11.6569 9.34315 13 11 13Z" stroke="white" stroke-width="1.6" stroke-linecap="round" stroke-linejoin="round"/>
</svg>
