<svg width="24" height="25" viewBox="0 0 24 25" fill="none" xmlns="http://www.w3.org/2000/svg">
<path d="M21 16.0995V12.0996L16.5 14.6996V19.8295L20 17.8295C20.3037 17.6541 20.556 17.402 20.7315 17.0983C20.9071 16.7947 20.9996 16.4502 21 16.0995Z" fill="#404040"/>
<path d="M3 12.0996V16.0995C3.00036 16.4502 3.09294 16.7947 3.26846 17.0983C3.44398 17.402 3.69626 17.6541 4 17.8295L7.5 19.8295V14.6996L3 12.0996Z" fill="#404040"/>
<path d="M16.4478 4.33971L13 2.36951C12.696 2.19397 12.3511 2.10156 12 2.10156C11.6489 2.10156 11.304 2.19397 11 2.36951L7.55216 4.33971L12 6.90957L16.4478 4.33971Z" fill="#404040"/>
<path d="M21 16.0995V8.09951C20.9996 7.74879 20.9071 7.40432 20.7315 7.10067C20.556 6.79703 20.3037 6.54487 20 6.36951L16.4478 4.33971M21 16.0995C20.9996 16.4502 20.9071 16.7947 20.7315 17.0983C20.556 17.402 20.3037 17.6541 20 17.8295L16.5 19.8295M21 16.0995V12.0996L16.5 14.6996V19.8295M3 16.0995V8.09951C3.00036 7.74879 3.09294 7.40432 3.26846 7.10067C3.44398 6.79703 3.69626 6.54487 4 6.36951L7.55216 4.33971M3 16.0995C3.00036 16.4502 3.09294 16.7947 3.26846 17.0983C3.44398 17.402 3.69626 17.6541 4 17.8295L7.5 19.8295M3 16.0995V12.0996L7.5 14.6996V19.8295M7.5 4.30957L7.55216 4.33971M16.5 4.30957L16.4478 4.33971M7.5 19.8896V19.8295M16.5 19.8896V19.8295M3.27002 7.05957L12 12.1096L20.73 7.05957M12 22.1796V12.0996M16.5 19.8295L13 21.8295C12.696 22.005 12.3511 22.0975 12 22.0975C11.6489 22.0975 11.304 22.005 11 21.8295L7.5 19.8295M16.4478 4.33971L13 2.36951C12.696 2.19397 12.3511 2.10156 12 2.10156C11.6489 2.10156 11.304 2.19397 11 2.36951L7.55216 4.33971M16.4478 4.33971L12 6.90957L7.55216 4.33971" stroke="#404040" stroke-width="2" stroke-linecap="round" stroke-linejoin="round"/>
</svg>
