<svg width="24" height="24" viewBox="0 0 24 24" fill="none" xmlns="http://www.w3.org/2000/svg">
<g clip-path="url(#clip0_10553_121557)">
<path fill-rule="evenodd" clip-rule="evenodd" d="M16 3.66622C16 3.17531 16.398 2.77734 16.8889 2.77734C19.3434 2.77734 21.3333 4.76717 21.3333 7.22174C21.3333 9.67631 19.3434 11.6661 16.8889 11.6661C16.398 11.6661 16 11.2682 16 10.7773C16 10.2863 16.398 9.88837 16.8889 9.88837C18.3616 9.88837 19.5555 8.69449 19.5555 7.22174C19.5555 5.74899 18.3616 4.5551 16.8889 4.5551C16.398 4.5551 16 4.15713 16 3.66622Z" fill="#404040"/>
<path fill-rule="evenodd" clip-rule="evenodd" d="M20.4451 12.0971C20.694 11.9304 21.01 11.9003 21.2858 12.0169C22.8795 12.6907 24 14.2691 24 16.1111V17.8889C24 19.3616 22.8061 20.5555 21.3334 20.5555H20.4445C19.9537 20.5555 19.5557 20.1575 19.5557 19.6667C19.5557 19.1758 19.9537 18.7778 20.4445 18.7778H21.3334C21.8242 18.7778 22.2223 18.3797 22.2223 17.8889V16.1111C22.2223 15.1655 21.73 14.3335 20.9851 13.8599C20.8595 13.9323 20.7414 13.9907 20.6134 14.0408C20.4915 14.0885 20.3711 14.1244 20.2612 14.1571C20.2516 14.1599 20.2419 14.1628 20.2319 14.1658C20.1235 14.198 19.9987 14.2351 19.8307 14.2898C19.3638 14.4417 18.8623 14.1863 18.7103 13.7195C18.5585 13.2527 18.8138 12.7511 19.2806 12.5992C19.4709 12.5373 19.615 12.4945 19.7247 12.4619C19.7349 12.4589 19.7446 12.456 19.7541 12.4532C19.8724 12.4179 19.9235 12.4017 19.966 12.3851C20.0303 12.3599 20.1089 12.3223 20.4451 12.0971Z" fill="#404040"/>
<path fill-rule="evenodd" clip-rule="evenodd" d="M8.88894 2.77776C6.92528 2.77776 5.33342 4.36962 5.33342 6.33327C5.33342 8.29693 6.92528 9.88879 8.88894 9.88879C10.8526 9.88879 12.4445 8.29693 12.4445 6.33327C12.4445 4.36962 10.8526 2.77776 8.88894 2.77776ZM3.55566 6.33327C3.55566 3.3878 5.94346 1 8.88894 1C11.8344 1 14.2222 3.3878 14.2222 6.33327C14.2222 9.27875 11.8344 11.6665 8.88894 11.6665C5.94346 11.6665 3.55566 9.27875 3.55566 6.33327Z" fill="#404040"/>
<path d="M8.88894 2.77776C6.92528 2.77776 5.33342 4.36962 5.33342 6.33327C5.33342 8.29693 6.92528 9.88879 8.88894 9.88879C10.8526 9.88879 12.4445 8.29693 12.4445 6.33327C12.4445 4.36962 10.8526 2.77776 8.88894 2.77776Z" fill="#404040"/>
<path fill-rule="evenodd" clip-rule="evenodd" d="M3.89812 12.6711C4.42358 12.3721 5.06496 12.3607 5.60075 12.6407C6.58218 13.1536 7.6989 13.4445 8.88879 13.4445C10.0787 13.4445 11.1954 13.1536 12.1768 12.6407C12.7126 12.3607 13.354 12.3721 13.8795 12.6711C16.2037 13.9935 17.7776 16.4971 17.7776 19.3703C17.7776 21.0067 16.451 22.3333 14.8146 22.3333H2.96294C1.32655 22.3333 0 21.0067 0 19.3703C0 16.4971 1.57392 13.9935 3.89812 12.6711ZM13.0003 14.2162C14.7917 15.2356 15.9998 17.1618 15.9998 19.3703C15.9998 20.0248 15.4692 20.5555 14.8146 20.5555H2.96294C2.30838 20.5555 1.77776 20.0248 1.77776 19.3703C1.77776 17.1618 2.98589 15.2356 4.7773 14.2162C6.00681 14.8589 7.40537 15.2222 8.88879 15.2222C10.3722 15.2222 11.7708 14.8589 13.0003 14.2162Z" fill="#404040"/>
<path d="M13.0003 14.2162C14.7917 15.2356 15.9998 17.1618 15.9998 19.3703C15.9998 20.0248 15.4692 20.5555 14.8146 20.5555H2.96294C2.30838 20.5555 1.77776 20.0248 1.77776 19.3703C1.77776 17.1618 2.98589 15.2356 4.7773 14.2162C6.00681 14.8589 7.40537 15.2222 8.88879 15.2222C10.3722 15.2222 11.7708 14.8589 13.0003 14.2162Z" fill="#404040"/>
</g>
<defs>
<clipPath id="clip0_10553_121557">
<rect width="24" height="24" fill="white"/>
</clipPath>
</defs>
</svg>
