<svg width="24" height="25" viewBox="0 0 24 25" fill="none" xmlns="http://www.w3.org/2000/svg">
<path d="M7.9 20.0997C9.80858 21.0787 12.0041 21.3439 14.0909 20.8474C16.1777 20.351 18.0186 19.1255 19.2818 17.3918C20.545 15.6582 21.1474 13.5304 20.9806 11.3918C20.8137 9.25327 19.8886 7.24463 18.3718 5.72785C16.855 4.21107 14.8464 3.28591 12.7078 3.11907C10.5693 2.95224 8.44147 3.5547 6.70782 4.8179C4.97417 6.0811 3.74869 7.92197 3.25222 10.0088C2.75575 12.0956 3.02094 14.2911 4 16.1997L2 22.0997L7.9 20.0997Z" fill="#404040"/>
<path d="M8 12.0996H8.01M12 12.0996H12.01M16 12.0996H16.01M7.9 20.0997C9.80858 21.0787 12.0041 21.3439 14.0909 20.8474C16.1777 20.351 18.0186 19.1255 19.2818 17.3918C20.545 15.6582 21.1474 13.5304 20.9806 11.3918C20.8137 9.25327 19.8886 7.24463 18.3718 5.72785C16.855 4.21107 14.8464 3.28591 12.7078 3.11907C10.5693 2.95224 8.44147 3.5547 6.70782 4.8179C4.97417 6.0811 3.74869 7.92197 3.25222 10.0088C2.75575 12.0956 3.02094 14.2911 4 16.1997L2 22.0997L7.9 20.0997Z" stroke="#404040" stroke-width="2" stroke-linecap="round" stroke-linejoin="round"/>
<rect x="7" y="11.0996" width="2" height="2" rx="1" fill="#FAFAFA"/>
<rect x="11" y="11.0996" width="2" height="2" rx="1" fill="#FAFAFA"/>
<rect x="15" y="11.0996" width="2" height="2" rx="1" fill="#FAFAFA"/>
</svg>
