<svg width="24" height="25" viewBox="0 0 24 25" fill="none" xmlns="http://www.w3.org/2000/svg">
<path d="M6 8.09961H12H18C19.1046 8.09961 20 8.99504 20 10.0996V14.0996V18.0996C20 19.2042 19.1046 20.0996 18 20.0996H6C4.89543 20.0996 4 19.2042 4 18.0996V14.0996V10.0996C4 8.99504 4.89543 8.09961 6 8.09961Z" fill="#404040"/>
<path d="M12 8.09961V4.09961H8M12 8.09961H6M12 8.09961H18M6 8.09961H18M6 8.09961C4.89543 8.09961 4 8.99504 4 10.0996M18 8.09961C19.1046 8.09961 20 8.99504 20 10.0996M20 10.0996V18.0996M20 10.0996V14.0996M20 18.0996C20 19.2042 19.1046 20.0996 18 20.0996H6C4.89543 20.0996 4 19.2042 4 18.0996M20 18.0996V14.0996M4 18.0996V10.0996M4 18.0996V14.0996M4 10.0996V14.0996M2 14.0996H4M20 14.0996H22M15 13.0996V15.0996M9 13.0996V15.0996" stroke="#404040" stroke-width="2" stroke-linecap="round" stroke-linejoin="round"/>
<path d="M9 13.0996L9 15.0996" stroke="#F5F5F5" stroke-width="2" stroke-linecap="round"/>
<path d="M15 13.0996L15 15.0996" stroke="#F5F5F5" stroke-width="2" stroke-linecap="round"/>
</svg>
