<svg width="20" height="20" viewBox="0 0 20 20" fill="none" xmlns="http://www.w3.org/2000/svg">
<path d="M16.6673 5.83301H9.16732M11.6673 14.1663H4.16732M11.6673 14.1663C11.6673 15.5471 12.7866 16.6663 14.1673 16.6663C15.548 16.6663 16.6673 15.5471 16.6673 14.1663C16.6673 12.7856 15.548 11.6663 14.1673 11.6663C12.7866 11.6663 11.6673 12.7856 11.6673 14.1663ZM8.33398 5.83301C8.33398 7.21372 7.2147 8.33301 5.83398 8.33301C4.45327 8.33301 3.33398 7.21372 3.33398 5.83301C3.33398 4.4523 4.45327 3.33301 5.83398 3.33301C7.2147 3.33301 8.33398 4.4523 8.33398 5.83301Z" stroke="#0A0A0A" stroke-width="1.4" stroke-linecap="round" stroke-linejoin="round"/>
</svg>
