<svg width="25" height="24" viewBox="0 0 25 24" fill="none" xmlns="http://www.w3.org/2000/svg">
<g clip-path="url(#clip0_10457_62398)">
<path d="M24.4969 12.6848L24.4865 12.5728C24.4952 12.3825 24.5 12.1917 24.5 12C24.5 8.79456 23.2518 5.78119 20.9853 3.51471C18.7188 1.24823 15.7053 0 12.5 0C9.29474 0 6.28119 1.24823 4.01471 3.51471C1.74823 5.78119 0.5 8.79456 0.5 12C0.5 12.0828 0.501282 12.1653 0.50293 12.2479C0.5 12.416 0.499084 12.5869 0.501282 12.761C0.501465 12.7767 0.502197 12.7923 0.503296 12.808C0.598694 14.0191 0.803406 15.0635 1.1297 16.001C1.1319 16.0076 1.13446 16.0142 1.13684 16.0208C1.54443 17.0878 2.04633 18.0348 2.62842 18.8357C2.63245 18.8412 2.63666 18.8469 2.64087 18.8524C2.65405 18.8694 2.66742 18.886 2.6806 18.9029C3.07538 19.4619 3.52087 19.9913 4.01471 20.4853C6.28119 22.7518 9.29474 24 12.5 24C15.7053 24 18.7188 22.7518 20.9853 20.4853C23.0185 18.4521 24.2314 15.8179 24.4599 12.9833C24.4925 12.8903 24.5068 12.7894 24.4969 12.6848ZM16.6766 21.735C16.9388 21.577 17.1934 21.408 17.4389 21.2283C17.4407 21.2271 17.4424 21.2258 17.4442 21.2245C18.5126 20.4272 19.4445 19.3857 20.1393 18.2122C20.7795 17.1616 21.071 16.1364 21.2534 15.3604C21.2556 15.3505 21.2578 15.3406 21.2596 15.3305C21.2929 15.1551 21.3293 14.9819 21.3682 14.8156C21.3711 14.8026 21.3738 14.7894 21.376 14.7762C21.3997 14.6396 21.4084 14.5168 21.4161 14.4086C21.4202 14.3518 21.424 14.2982 21.4291 14.256C21.4295 14.2529 21.4301 14.2502 21.4302 14.2471L21.4769 13.8323C21.4932 13.6967 21.4881 13.5784 21.4844 13.4918C21.4833 13.4641 21.4819 13.4326 21.4822 13.4189C21.4826 13.409 21.4828 13.3991 21.4826 13.3892C21.4777 13.0095 21.4863 12.8 21.4868 12.7875C21.4874 12.7773 21.4866 12.7674 21.4866 12.7573C21.487 12.7207 21.4854 12.6837 21.4797 12.6464C21.4795 12.6442 21.448 12.4325 21.4119 12.0469C21.411 12.0372 21.4099 12.0276 21.4086 12.0181C21.407 12.0051 21.4052 11.9745 21.4035 11.9476C21.3982 11.8619 21.3911 11.7449 21.3603 11.6111L21.2709 11.2084C21.2702 11.2053 21.2697 11.202 21.2687 11.1987C21.2592 11.1586 21.2501 11.107 21.2404 11.0524C21.2219 10.9479 21.2006 10.829 21.1631 10.6976C21.1594 10.6848 21.1554 10.6719 21.151 10.6593C21.0946 10.4976 21.0413 10.3337 20.9924 10.1721C20.9895 10.1622 20.9862 10.1523 20.9827 10.1426C20.7278 9.41656 20.3442 8.4646 19.6329 7.53699C18.8712 6.51526 17.9119 5.64587 16.8583 5.0224C16.8564 5.0213 16.8546 5.0202 16.8526 5.0191C15.6219 4.30609 14.2093 3.87598 12.7662 3.77472C12.6106 3.75659 12.4667 3.763 12.3499 3.76813C12.2896 3.77087 12.2325 3.77344 12.1889 3.77197C12.1821 3.77161 12.1754 3.77142 12.1686 3.77142L11.9163 3.76959C11.7632 3.76154 11.6306 3.76923 11.5024 3.79376C11.3988 3.80969 11.2867 3.82031 11.1686 3.83148C10.9315 3.854 10.6649 3.87927 10.3892 3.95746C9.56573 4.09589 8.8161 4.42914 8.1767 4.73181C8.15692 4.74115 8.1377 4.7514 8.11902 4.76257C7.97034 4.85065 7.81873 4.93451 7.66821 5.01178C7.66327 5.01434 7.65833 5.01691 7.65356 5.01947C7.5166 5.09399 7.40326 5.17786 7.30328 5.25165C7.24835 5.29248 7.19635 5.33093 7.15167 5.35895C7.14783 5.36133 7.14417 5.36371 7.1405 5.36609L6.90558 5.52026C6.87811 5.53821 6.85211 5.55817 6.82739 5.57977L6.61389 5.76709C6.61005 5.77057 6.6062 5.77405 6.60254 5.77753C6.5575 5.81873 6.50238 5.86285 6.44415 5.90955C6.35608 5.98022 6.25629 6.06024 6.15741 6.15729C5.61542 6.67657 5.11938 7.3017 4.6413 8.06836C4.63654 8.07587 4.63196 8.08356 4.62738 8.09143C4.25824 8.73743 3.96417 9.47369 3.72852 10.3425C3.72595 10.3517 3.72375 10.361 3.72156 10.3704C3.56464 11.0594 3.49854 11.82 3.51355 12.7641C3.51392 12.7859 3.5152 12.8077 3.51758 12.8295C3.61884 13.7529 3.77759 14.4869 4.01709 15.1399C4.02057 15.1492 4.02423 15.1586 4.02808 15.1677C4.3584 15.9615 4.72333 16.6187 5.14392 17.1771C5.14996 17.185 5.15601 17.1927 5.16223 17.2002C5.69452 17.8486 6.21783 18.3604 6.76239 18.7643C6.86475 18.8421 6.96436 18.9023 7.05243 18.9556C7.10809 18.9891 7.16064 19.0208 7.20001 19.049C7.20386 19.0518 7.2077 19.0545 7.21173 19.0573L7.41754 19.1984C7.44757 19.2191 7.47925 19.2374 7.51221 19.2532L7.73743 19.3607C7.74164 19.3627 7.74603 19.3647 7.75024 19.3667C7.78687 19.3832 7.83374 19.4099 7.88373 19.4383C7.97583 19.4905 8.09045 19.5557 8.22687 19.6075C8.23273 19.6099 8.23859 19.6119 8.24463 19.6141C8.38031 19.6615 8.51398 19.7141 8.64178 19.7706C8.66522 19.7811 8.68939 19.7902 8.71375 19.7979C9.35992 20.0026 9.9964 20.1879 10.6732 20.2112C10.812 20.2332 10.9447 20.2394 11.0705 20.2394C11.1606 20.2394 11.2468 20.2361 11.329 20.2332C11.4265 20.2293 11.5191 20.226 11.5984 20.2291C11.7548 20.2418 11.8908 20.2222 11.9868 20.2035L12.186 20.1753C12.1933 20.1742 12.2006 20.1731 12.2079 20.1718C12.2314 20.1676 12.2742 20.1649 12.3156 20.1619C12.4114 20.1555 12.5401 20.1469 12.6805 20.1103C13.829 19.8728 14.8696 19.4042 15.7736 18.7172C15.7763 18.715 15.7791 18.713 15.7818 18.7108C16.517 18.1351 17.1553 17.387 17.6281 16.5471C18.0569 15.8163 18.227 15.1302 18.3528 14.5443C18.3559 14.5298 18.3585 14.5153 18.3607 14.5007C18.3762 14.3961 18.396 14.2947 18.4191 14.1989C18.4236 14.1804 18.4273 14.1616 18.4302 14.1429C18.448 14.0297 18.45 13.9283 18.4515 13.8543C18.452 13.8285 18.4526 13.7932 18.454 13.7811C18.455 13.7715 18.4559 13.7622 18.4566 13.7527C18.4619 13.6743 18.4696 13.5989 18.4802 13.522C18.4806 13.5201 18.4808 13.5181 18.481 13.5163C18.4984 13.3828 18.4866 13.2695 18.4797 13.2017C18.4789 13.1942 18.478 13.1867 18.4775 13.1796C18.4775 13.1704 18.4771 13.1614 18.4767 13.1525C18.4674 12.9683 18.4711 12.8553 18.4727 12.8196C18.4797 12.7454 18.4753 12.6691 18.4572 12.5925C18.4568 12.5914 18.4297 12.4698 18.4062 12.2488C18.4053 12.2395 18.4041 12.2303 18.4028 12.2212C18.4024 12.215 18.402 12.2087 18.4019 12.2025C18.3986 12.1351 18.3929 12.0222 18.3541 11.8912C18.3533 11.8892 18.3528 11.8872 18.3522 11.8854C18.3297 11.812 18.3098 11.7376 18.2927 11.6646C18.2905 11.655 18.2881 11.6455 18.2856 11.636C18.2827 11.6254 18.277 11.5931 18.2728 11.5699C18.2603 11.4994 18.2431 11.4029 18.2083 11.296C18.2021 11.2769 18.1951 11.2581 18.1873 11.2396C18.1483 11.1475 18.1153 11.0579 18.0864 10.966C18.0814 10.951 18.0763 10.936 18.0704 10.9211C17.8624 10.3903 17.5988 9.7738 17.0994 9.17065C16.5541 8.48584 15.8854 7.91345 15.1647 7.51501C15.1614 7.51318 15.1581 7.51135 15.1547 7.5097C14.3155 7.06348 13.3954 6.81372 12.4194 6.76703C12.285 6.75311 12.1678 6.76593 12.0876 6.77454C12.0682 6.77673 12.0422 6.77966 12.0312 6.78021C12.0172 6.77985 12.0029 6.78003 11.9888 6.7804C11.9525 6.78186 11.9144 6.78223 11.8734 6.78168C11.7365 6.77271 11.6114 6.78461 11.4922 6.81738C11.4426 6.828 11.3768 6.83533 11.3076 6.84302C11.1622 6.85931 10.9857 6.87909 10.7966 6.94354C10.3049 7.03766 9.87427 7.25024 9.49249 7.43866L9.38995 7.4892C9.35864 7.50458 9.32843 7.52234 9.29968 7.54211C9.22882 7.59119 9.15851 7.63312 9.08435 7.67029C9.07648 7.67432 9.06879 7.67853 9.06091 7.68274C8.94446 7.74701 8.85657 7.82135 8.79248 7.87555C8.77454 7.89075 8.74982 7.91162 8.74396 7.91602C8.73279 7.92297 8.72198 7.9303 8.71136 7.93781C8.67767 7.96179 8.6427 7.98486 8.60736 8.00647C8.55939 8.03577 8.51526 8.07056 8.47552 8.11029L8.349 8.23718C8.34497 8.24121 8.34113 8.24524 8.33728 8.24927C8.32758 8.25934 8.2959 8.28534 8.27264 8.3042C8.21588 8.35052 8.14557 8.40802 8.07306 8.48511C7.6651 8.90881 7.36188 9.38177 7.14325 9.7467C7.13556 9.75934 7.12842 9.77216 7.12164 9.78534C6.862 10.2878 6.71643 10.7963 6.6084 11.2277C6.60455 11.2432 6.60126 11.2588 6.59851 11.2745C6.50879 11.7742 6.51263 12.2477 6.52618 12.7707C6.5271 12.8064 6.53076 12.8419 6.53699 12.8771C6.61938 13.3363 6.71625 13.8239 6.91071 14.2939C6.9173 14.3099 6.92444 14.3254 6.93195 14.3406C7.1178 14.7109 7.35089 15.1419 7.67023 15.5316C7.68066 15.5444 7.69165 15.5568 7.703 15.5689C7.98077 15.8628 8.31879 16.1997 8.72125 16.4729C8.80438 16.5311 8.8822 16.5696 8.93933 16.598C8.95251 16.6044 8.96588 16.6106 8.97852 16.6176C8.98071 16.619 8.98309 16.6207 8.98529 16.6221L9.10468 16.7027C9.15997 16.7399 9.22021 16.769 9.28375 16.7893C9.31158 16.7983 9.33813 16.808 9.3623 16.8181C9.37073 16.8215 9.37915 16.825 9.38757 16.8281C9.39526 16.8322 9.40259 16.8365 9.4101 16.8408C9.47382 16.8763 9.56976 16.9299 9.69885 16.9658C9.70947 16.9688 9.71991 16.9713 9.73053 16.9739C9.78033 16.9852 9.82391 16.9993 9.86401 17.0171C9.90576 17.0356 9.94934 17.0499 9.99384 17.0599C10.0515 17.0729 10.1086 17.0865 10.165 17.1C10.4542 17.1691 10.7788 17.2462 11.1403 17.235C11.1939 17.2414 11.2454 17.2438 11.2941 17.2438C11.3913 17.2438 11.4779 17.2339 11.55 17.2255C11.5781 17.2222 11.6151 17.218 11.6346 17.2169C11.7599 17.2293 11.8857 17.2145 12.0168 17.1724C12.0323 17.1685 12.0477 17.1652 12.0638 17.1623C12.0706 17.161 12.0772 17.1597 12.084 17.1584C12.0858 17.1583 12.0876 17.1581 12.0895 17.1581C12.155 17.1541 12.27 17.1471 12.4017 17.1006C13.0576 16.9116 13.6215 16.6143 14.1243 16.1926C14.1298 16.188 14.1351 16.1834 14.1403 16.1786C14.5407 15.822 14.882 15.3664 15.1277 14.8607C15.3471 14.4421 15.4055 14.0458 15.4443 13.7829C15.4485 13.7551 15.4524 13.7283 15.4564 13.7023C15.4588 13.6879 15.4604 13.6732 15.4619 13.6588C15.4991 13.2534 15.4738 12.9492 15.4612 12.8009C15.4659 12.7313 15.4601 12.6632 15.4454 12.5982L15.4458 12.5995C15.4458 12.5995 15.4453 12.5975 15.4447 12.5945C15.4447 12.5942 15.4447 12.594 15.4445 12.5936C15.4421 12.5808 15.4365 12.5477 15.431 12.4962C15.4308 12.4948 15.4308 12.4933 15.4306 12.4916C15.4282 12.4488 15.4229 12.3679 15.3932 12.2679C15.3857 12.243 15.3795 12.2199 15.3742 12.1972C15.3735 12.1935 15.3726 12.1899 15.3716 12.1864L15.3702 12.1782C15.3636 12.1414 15.3526 12.0795 15.3292 12.0071C15.3228 11.9879 15.3158 11.9689 15.3077 11.9502C15.2964 11.9231 15.2865 11.8965 15.2779 11.8693C15.2731 11.8541 15.2678 11.8389 15.262 11.8239C15.1895 11.6395 15.0551 11.2969 14.7848 10.9693C14.5193 10.6366 14.1928 10.3581 13.84 10.1631C13.8367 10.1613 13.8334 10.1596 13.8301 10.1578C13.4216 9.94061 12.9748 9.8183 12.5016 9.79413C12.4068 9.78552 12.3299 9.79395 12.2858 9.79889C12.2816 9.79889 12.2773 9.79907 12.2731 9.79926C12.266 9.79944 12.2589 9.79944 12.2515 9.79962C12.1592 9.79468 12.0724 9.80273 11.988 9.82397C11.9761 9.82581 11.9641 9.8269 11.9521 9.82819C11.8837 9.83569 11.7868 9.84668 11.6762 9.8811C11.4244 9.93347 11.2142 10.0371 11.0427 10.1217L10.9998 10.1429C10.9681 10.1583 10.9379 10.1763 10.909 10.1962C10.8943 10.2063 10.8795 10.2151 10.864 10.2231C10.8564 10.227 10.8488 10.2308 10.8414 10.235C10.757 10.2816 10.6975 10.3319 10.662 10.3619L10.6598 10.3638C10.6576 10.3654 10.6554 10.3669 10.6532 10.3685C10.6466 10.3731 10.64 10.3775 10.6332 10.3815C10.5853 10.4106 10.5411 10.4454 10.5014 10.4852L10.4503 10.5364L10.4445 10.5412C10.4166 10.5639 10.371 10.6013 10.3225 10.6527C10.1213 10.8618 9.97589 11.0881 9.87152 11.2623C9.86383 11.2749 9.85669 11.2879 9.84991 11.3011C9.71899 11.5543 9.6463 11.8099 9.5976 12.0046C9.59375 12.02 9.59045 12.0355 9.58752 12.0513C9.54285 12.3001 9.54449 12.5341 9.55054 12.7716C9.55145 12.8075 9.55511 12.8434 9.56134 12.8785C9.59888 13.0869 9.64703 13.329 9.74518 13.5667C9.75177 13.5824 9.75891 13.598 9.7666 13.6133C9.85559 13.791 9.96857 13.9991 10.1302 14.1967C10.1409 14.2095 10.152 14.2222 10.1634 14.2344C10.2969 14.3754 10.4604 14.538 10.6636 14.6763C10.7177 14.7136 10.7669 14.7391 10.7973 14.7541L10.8306 14.7764C10.8846 14.8129 10.9432 14.8414 11.0053 14.8618C11.0452 14.8835 11.1133 14.9183 11.202 14.9429C11.21 14.9451 11.2184 14.9473 11.2267 14.9493C11.2653 14.9656 11.3054 14.9784 11.3463 14.9877C11.3691 14.9929 11.3918 14.9984 11.4142 15.0037C11.5457 15.035 11.7044 15.0731 11.8925 15.0731C11.9249 15.0731 11.9584 15.0718 11.9926 15.0694C12.3801 15.041 12.6727 14.7041 12.6443 14.3168C12.6161 13.9294 12.2795 13.639 11.8936 13.6666C11.8688 13.6664 11.7947 13.6487 11.7407 13.6359C11.731 13.6335 11.7211 13.6313 11.7114 13.6289C11.6863 13.6198 11.6606 13.6111 11.6346 13.6033C11.6107 13.5908 11.5804 13.5764 11.5447 13.5624C11.5024 13.5352 11.4645 13.5157 11.4395 13.5031C11.3593 13.4458 11.2772 13.3647 11.2047 13.2889C11.1415 13.2072 11.085 13.1039 11.0366 13.0089C11.0044 12.9241 10.9804 12.8185 10.955 12.6823C10.952 12.5416 10.9524 12.4226 10.9681 12.3203C10.9978 12.2045 11.0353 12.0758 11.0901 11.9643C11.1536 11.8596 11.236 11.7328 11.3307 11.6332L11.3345 11.6299C11.3596 11.6094 11.4006 11.5759 11.4446 11.5309C11.4486 11.5281 11.4528 11.5252 11.4568 11.5225C11.4986 11.4946 11.5319 11.4677 11.5557 11.4478C11.5914 11.428 11.6266 11.4071 11.6608 11.3849L11.6649 11.3829C11.7839 11.3242 11.8963 11.2687 11.9725 11.256C12.0096 11.2498 12.0461 11.2407 12.0818 11.2286C12.0906 11.2275 12.0994 11.2267 12.1083 11.2256C12.1464 11.2214 12.1948 11.2159 12.2499 11.2059C12.2691 11.2053 12.2887 11.2055 12.3076 11.205C12.355 11.205 12.3951 11.2015 12.4238 11.1984C12.6901 11.211 12.9391 11.2778 13.1645 11.3967C13.4069 11.5318 13.5831 11.7175 13.6882 11.8499C13.6913 11.8539 13.6946 11.8579 13.6979 11.8618C13.8123 11.9996 13.8808 12.1558 13.9449 12.3179C13.9579 12.3576 13.9722 12.3975 13.9875 12.4369C13.9919 12.4607 13.9978 12.4918 14.007 12.5272C14.0139 12.5561 14.0212 12.5847 14.0291 12.6129C14.0302 12.6262 14.0317 12.6412 14.0339 12.6575C14.0399 12.713 14.0467 12.7603 14.0529 12.7991C14.0536 12.8445 14.0568 12.8848 14.0595 12.9168C14.0698 13.0367 14.0868 13.2358 14.0632 13.5097C14.0599 13.5319 14.0564 13.5544 14.0531 13.5775C14.022 13.7875 13.9899 14.0048 13.879 14.2137C13.8748 14.2218 13.8707 14.2299 13.8667 14.2379C13.7515 14.4769 13.5446 14.8233 13.2125 15.1219C12.86 15.4155 12.4604 15.6227 11.9917 15.7551C11.9435 15.7581 11.8725 15.7635 11.7903 15.7828C11.7484 15.7908 11.7066 15.8002 11.6656 15.8106C11.5594 15.809 11.4658 15.8196 11.3878 15.8287C11.3604 15.8318 11.3246 15.8361 11.3041 15.8372C11.2459 15.8265 11.1864 15.8234 11.1273 15.8278C10.9471 15.8406 10.7356 15.7906 10.4913 15.7322C10.4492 15.7222 10.4067 15.7121 10.3641 15.7022C10.2804 15.6687 10.1943 15.6409 10.1037 15.6174C10.101 15.616 10.0984 15.6145 10.0958 15.613C10.0475 15.5861 9.97681 15.5466 9.88654 15.5132C9.86273 15.5035 9.83856 15.4942 9.81421 15.4852L9.77704 15.4601C9.69574 15.4034 9.61957 15.3657 9.56317 15.3378C9.54926 15.3309 9.53076 15.3217 9.52161 15.3168C9.51941 15.3151 9.51703 15.3137 9.51483 15.312C9.2301 15.1198 8.9657 14.857 8.74268 14.6219C8.52423 14.3507 8.35303 14.0361 8.20068 13.734C8.07159 13.4136 7.99561 13.0404 7.93042 12.6812C7.92017 12.267 7.91888 11.8932 7.97839 11.5453C8.06445 11.2039 8.17743 10.8107 8.3609 10.4502C8.54071 10.151 8.78442 9.77289 9.08856 9.45776C9.09186 9.45447 9.09479 9.45135 9.09808 9.44788C9.1076 9.43781 9.13892 9.41217 9.1618 9.39349C9.21509 9.34991 9.28101 9.29626 9.34912 9.2254L9.41504 9.15948C9.44836 9.13788 9.48114 9.11554 9.51337 9.09283C9.59082 9.04193 9.65363 8.98883 9.7005 8.9491C9.71515 8.93665 9.73438 8.92053 9.74591 8.91138C9.85065 8.85718 9.95392 8.79639 10.0537 8.72974L10.1143 8.69989C10.4571 8.5307 10.7806 8.37085 11.0961 8.31848C11.1467 8.31006 11.1959 8.29614 11.2433 8.2771C11.2836 8.2608 11.3792 8.25018 11.4634 8.24084C11.5669 8.22913 11.6833 8.21613 11.811 8.18701C11.8168 8.18738 11.8225 8.18756 11.8284 8.18756C11.8961 8.18884 11.9598 8.18866 12.0219 8.18665C12.1089 8.18866 12.1838 8.17896 12.2404 8.17273C12.2556 8.17108 12.2751 8.16888 12.288 8.16779C12.3019 8.16925 12.316 8.17035 12.3299 8.1709C13.1033 8.20477 13.8297 8.39923 14.4891 8.74878C15.196 9.14081 15.7023 9.67346 16.0028 10.0516C16.0059 10.0556 16.009 10.0594 16.0123 10.0635C16.3754 10.5005 16.5779 10.9695 16.7524 11.4135C16.7881 11.5245 16.8292 11.6362 16.8746 11.7466C16.8786 11.7651 16.8835 11.7925 16.8878 11.816C16.8965 11.8661 16.9075 11.9279 16.9253 11.9951C16.9462 12.0837 16.97 12.173 16.9963 12.2617C16.9965 12.2655 16.9967 12.2692 16.9969 12.273C16.9987 12.3093 17.0011 12.3572 17.0092 12.4133C17.0282 12.59 17.0496 12.722 17.0656 12.8069C17.063 12.8932 17.0623 13.027 17.0709 13.2078C17.0718 13.2627 17.0767 13.3099 17.0804 13.3456C17.0809 13.3513 17.0817 13.3572 17.0822 13.3632C17.0699 13.4562 17.0604 13.5509 17.0538 13.645C17.0472 13.713 17.0461 13.7758 17.045 13.8268C17.0445 13.8541 17.0439 13.8867 17.0423 13.9083C17.0152 14.0251 16.9918 14.1465 16.9729 14.2701C16.866 14.7662 16.7327 15.2953 16.412 15.8399C16.4095 15.8441 16.4071 15.8481 16.4049 15.8524C16.0226 16.533 15.5088 17.1372 14.9183 17.6006C14.1787 18.1617 13.3238 18.544 12.3768 18.737C12.3586 18.7407 12.3445 18.744 12.3268 18.7493C12.3096 18.7529 12.2579 18.7564 12.2202 18.759C12.153 18.7635 12.0699 18.7692 11.9785 18.7844L11.7687 18.8141C11.7538 18.8163 11.739 18.8188 11.7244 18.8218C11.7125 18.8243 11.7046 18.8256 11.6998 18.8264C11.6932 18.8258 11.6868 18.8254 11.6802 18.8253C11.5369 18.8181 11.3981 18.8232 11.2756 18.8278C11.1232 18.8337 10.9793 18.839 10.8744 18.819C10.8358 18.8117 10.7968 18.8077 10.7576 18.8068C10.2566 18.7961 9.74298 18.6484 9.17352 18.4686C9.02649 18.4047 8.87433 18.3448 8.72015 18.2908C8.685 18.2763 8.633 18.2468 8.57806 18.2155C8.5083 18.176 8.42938 18.1311 8.33728 18.0888L8.16736 18.0079L8.01227 17.9013C7.93024 17.8431 7.84985 17.7946 7.77899 17.7517C7.7149 17.7131 7.65448 17.6765 7.612 17.644C7.60907 17.6418 7.60614 17.6396 7.60321 17.6375C7.15442 17.3047 6.71423 16.8735 6.25812 16.3195C5.91534 15.8619 5.6123 15.3127 5.33179 14.6415C5.13806 14.109 5.00641 13.4936 4.9187 12.7088C4.90771 11.9026 4.96191 11.2617 5.08917 10.6965C5.29114 9.95618 5.53723 9.33582 5.84137 8.80078C6.25519 8.13885 6.67761 7.60529 7.13263 7.17004C7.13501 7.16766 7.13721 7.16547 7.13959 7.16327C7.18884 7.11475 7.25439 7.06219 7.32379 7.00653C7.39209 6.95178 7.46936 6.88989 7.54663 6.81921L7.71783 6.66907L7.90643 6.54529C7.99341 6.49017 8.07086 6.43286 8.13934 6.38214C8.20618 6.3327 8.26935 6.28601 8.3197 6.25781C8.48248 6.17395 8.646 6.08368 8.80658 5.9892C9.36359 5.72626 10.0087 5.44135 10.6554 5.33862C10.6878 5.3335 10.7198 5.32617 10.7513 5.31647C10.9075 5.26868 11.0985 5.25055 11.3007 5.23151C11.4396 5.21832 11.5836 5.20477 11.7348 5.1806C11.744 5.17914 11.7533 5.17749 11.7625 5.17548C11.7718 5.17383 11.7956 5.17108 11.8516 5.17456C11.8641 5.17529 11.8765 5.17566 11.8888 5.17566L12.1492 5.17749C12.2451 5.1806 12.3339 5.17657 12.4127 5.17291C12.4868 5.16962 12.5637 5.16632 12.6051 5.17181C12.6201 5.17383 12.6353 5.17529 12.6505 5.17639C13.8857 5.26044 15.0939 5.6261 16.1443 6.23419C17.0392 6.76428 17.8564 7.50659 18.5075 8.3811C18.5097 8.38385 18.5117 8.3866 18.5139 8.38934C19.0984 9.15015 19.4166 9.92981 19.6505 10.5939C19.7015 10.762 19.7568 10.9323 19.8151 11.1004C19.8306 11.159 19.8427 11.2271 19.8553 11.2985C19.8678 11.3683 19.8806 11.4404 19.8986 11.517L19.9875 11.9182C19.9881 11.9207 19.9886 11.9233 19.9894 11.9258C19.994 11.946 19.9969 11.9923 19.9993 12.033C20.0022 12.0798 20.0053 12.1322 20.0125 12.1901C20.0405 12.4871 20.0661 12.6903 20.0793 12.7886C20.0764 12.887 20.0721 13.0919 20.0758 13.3945C20.0749 13.4524 20.0771 13.5049 20.0791 13.552C20.0809 13.5945 20.0829 13.6428 20.0804 13.6646C20.08 13.667 20.0797 13.6696 20.0793 13.6721L20.0328 14.0858C20.0233 14.1638 20.0179 14.2375 20.013 14.309C20.0075 14.3846 20.0024 14.4565 19.9927 14.5197C19.9528 14.6927 19.915 14.872 19.8804 15.0529C19.7122 15.767 19.4673 16.6126 18.936 17.4838C18.9343 17.4866 18.9327 17.4893 18.931 17.4921C18.3304 18.5074 17.5262 19.4075 16.6054 20.0953C15.4833 20.9161 14.1445 21.4801 12.7335 21.7267C12.7208 21.7289 12.708 21.7317 12.6952 21.7346C12.6284 21.7502 12.5337 21.7568 12.4333 21.7637C12.3478 21.7698 12.2513 21.7764 12.1497 21.7899L11.8439 21.8231C11.8339 21.824 11.824 21.8254 11.8139 21.8269C11.7445 21.8375 11.6931 21.8412 11.6564 21.8383C11.6471 21.8375 11.6379 21.837 11.6286 21.8366C11.4698 21.8306 11.3149 21.8318 11.1652 21.8329C10.9009 21.8353 10.6514 21.8372 10.4287 21.7982C10.4022 21.7934 10.3754 21.7903 10.3483 21.7888C9.51245 21.7396 8.67511 21.4785 7.9632 21.2269C7.75867 21.1366 7.547 21.0474 7.33386 20.9619C7.2467 20.9244 7.14929 20.8687 7.0462 20.8098C6.95868 20.7596 6.86823 20.7079 6.76807 20.6574L6.49725 20.515L6.24457 20.3406C6.15338 20.2755 6.06384 20.217 5.97723 20.1606C5.86975 20.0907 5.76831 20.0246 5.68262 19.9572C5.6806 19.9556 5.67859 19.9541 5.67657 19.9525C5.06024 19.4788 4.46149 18.8802 3.89459 18.1718C2.68976 16.4963 1.96118 14.4562 1.90936 12.2514C1.92694 11.3558 2.0238 10.5606 2.20361 9.83368C2.48688 8.8244 2.86517 7.91858 3.32825 7.14093C3.89331 6.25232 4.5188 5.4884 5.18768 4.87079C5.18933 4.86914 5.19098 4.86768 5.19263 4.86603C5.28326 4.7807 5.38873 4.69702 5.50043 4.6084C5.58557 4.54083 5.67346 4.47107 5.76245 4.39471L6.02667 4.17609L6.31177 3.98969C6.40991 3.92798 6.50037 3.86517 6.58771 3.80438C6.7027 3.72455 6.81128 3.64911 6.90997 3.59564C7.13062 3.47772 7.35034 3.36035 7.56915 3.24335C8.63043 2.75079 9.448 2.47778 10.218 2.35822C10.2416 2.35455 10.265 2.34979 10.2881 2.34357C10.5624 2.27179 10.8623 2.24634 11.1798 2.21942C11.3371 2.20605 11.4995 2.19214 11.6647 2.17218C11.6716 2.17126 11.6788 2.17035 11.6857 2.16925C11.7441 2.16046 11.8163 2.15826 11.9131 2.16302C11.9208 2.16339 11.9287 2.16357 11.9364 2.16376L12.2931 2.1687C12.4011 2.17273 12.5026 2.17126 12.6005 2.16998C12.7287 2.16815 12.8495 2.16632 12.946 2.17896C12.9574 2.18042 12.9689 2.18152 12.9805 2.18243C14.692 2.31812 16.3628 2.85187 17.8088 3.72382C19.0383 4.47565 20.1487 5.51147 21.0199 6.71924C21.0214 6.72144 21.023 6.72363 21.0247 6.72565C21.8558 7.85083 22.2947 9.00952 22.5529 9.78607L22.5787 9.87158C22.6413 10.0774 22.701 10.2737 22.7578 10.4601C22.7849 10.5646 22.8043 10.6741 22.825 10.7899C22.8394 10.8708 22.8542 10.9547 22.8724 11.0394L22.8929 11.1429C22.9238 11.2983 22.9528 11.4439 22.98 11.5796C22.9923 11.6409 22.9973 11.7145 23.0024 11.7927C23.0064 11.851 23.0103 11.9112 23.0176 11.9753L23.0765 12.5999C22.8464 16.7009 20.273 20.1861 16.6766 21.735Z" fill="black"/>
</g>
<defs>
<clipPath id="clip0_10457_62398">
<rect width="24" height="24" fill="white" transform="translate(0.5)"/>
</clipPath>
</defs>
</svg>
