<svg width="24" height="24" viewBox="0 0 24 24" fill="none" xmlns="http://www.w3.org/2000/svg">
<mask id="mask0_12074_125964" style="mask-type:luminance" maskUnits="userSpaceOnUse" x="0" y="0" width="24" height="24">
<path d="M24 0H0V24H24V0Z" fill="white"/>
</mask>
<g mask="url(#mask0_12074_125964)">
<path d="M16.7499 20.4898C16.3399 20.4898 15.9899 20.2098 15.9099 19.8098L15.6599 18.7498C15.5499 18.2598 15.1599 17.8698 14.6699 17.7498L13.5899 17.4998C13.1999 17.4198 12.9199 17.0698 12.9199 16.6598C12.9199 16.2498 13.1999 15.8998 13.5999 15.8198L14.6699 15.5698C15.1599 15.4598 15.5499 15.0698 15.6599 14.5798L15.9099 13.4998C15.9899 13.1098 16.3399 12.8398 16.7499 12.8398C17.1599 12.8398 17.4999 13.1198 17.5899 13.5098L17.8399 14.5798C17.9499 15.0698 18.3399 15.4598 18.8299 15.5798L19.9099 15.8298C20.2999 15.9098 20.5799 16.2598 20.5699 16.6698C20.5699 17.0798 20.2899 17.4198 19.8999 17.5098L18.8199 17.7598C18.3299 17.8698 17.9399 18.2598 17.8199 18.7498L17.5699 19.8298C17.4899 20.2198 17.1399 20.4998 16.7299 20.4998L16.7499 20.4898ZM15.8999 16.6598C16.2399 16.8798 16.5399 17.1798 16.7599 17.5198C16.9799 17.1798 17.2799 16.8798 17.6199 16.6598C17.2799 16.4398 16.9799 16.1398 16.7599 15.7998C16.5399 16.1398 16.2399 16.4398 15.8999 16.6598Z" fill="#404040"/>
<path d="M12 12.75C8.83 12.75 6.25 10.17 6.25 7C6.25 3.83 8.83 1.25 12 1.25C15.17 1.25 17.75 3.83 17.75 7C17.75 10.17 15.17 12.75 12 12.75ZM12 2.75C9.66 2.75 7.75 4.66 7.75 7C7.75 9.34 9.66 11.25 12 11.25C14.34 11.25 16.25 9.34 16.25 7C16.25 4.66 14.34 2.75 12 2.75Z" fill="#404040"/>
<path d="M3.41016 22.75C3.00016 22.75 2.66016 22.41 2.66016 22C2.66016 17.73 6.85016 14.25 12.0002 14.25C12.4102 14.25 12.7502 14.59 12.7502 15C12.7502 15.41 12.4102 15.75 12.0002 15.75C7.68016 15.75 4.16016 18.55 4.16016 22C4.16016 22.41 3.82016 22.75 3.41016 22.75Z" fill="#404040"/>
<path d="M20.5902 22.7496C20.1802 22.7496 19.8402 22.4096 19.8402 21.9996C19.8402 21.2296 19.6702 20.4696 19.3202 19.7596C19.1402 19.3896 19.3002 18.9396 19.6702 18.7596C20.0502 18.5796 20.4902 18.7396 20.6702 19.1096C21.1102 20.0296 21.3402 20.9996 21.3402 21.9996C21.3402 22.4096 21.0002 22.7496 20.5902 22.7496Z" fill="#404040"/>
</g>
</svg>
