<svg width="24" height="24" viewBox="0 0 24 24" fill="none" xmlns="http://www.w3.org/2000/svg">
<path d="M15 3.9197C14.13 4.2697 13.33 4.65971 12.7 5.04971L12.53 5.15969C12.24 5.33969 11.76 5.33969 11.47 5.15969L11.22 5.00973C9.43997 3.89973 6.25997 2.8397 4.15997 2.6697C2.96997 2.5697 2 3.46969 2 4.65969V16.7397C2 17.6997 2.77999 18.5997 3.73999 18.7197L4.03003 18.7597C6.20003 19.0497 9.54997 20.1497 11.47 21.1997L11.51 21.2197C11.78 21.3697 12.21 21.3697 12.47 21.2197C14.39 20.1597 17.75 19.0497 19.93 18.7597L20.26 18.7197C21.22 18.5997 22 17.6997 22 16.7397V4.6697C22 3.4697 21.02 2.57971 19.83 2.67971H19.77C19.53 2.69971 19.27 2.72975 19 2.77975M15 3.9197L19 2.77975M15 3.9197L17 3.34972L19 2.77975" stroke="#404040" stroke-width="1.8" stroke-linecap="round" stroke-linejoin="round"/>
<path d="M12 5.49023V20.4902" stroke="#404040" stroke-width="1.8" stroke-linecap="round" stroke-linejoin="round"/>
</svg>
