<svg width="24" height="24" viewBox="0 0 24 24" fill="none" xmlns="http://www.w3.org/2000/svg">
<g clip-path="url(#clip0_12074_125651)">
<mask id="mask0_12074_125651" style="mask-type:luminance" maskUnits="userSpaceOnUse" x="0" y="0" width="24" height="24">
<path d="M24 0H0V24H24V0Z" fill="white"/>
</mask>
<g mask="url(#mask0_12074_125651)">
<path d="M9.6 20.75C5.21 20.75 3.25 18.79 3.25 14.4V9.6C3.25 5.21 5.21 3.25 9.6 3.25H14.4C18.79 3.25 20.75 5.21 20.75 9.6C20.75 10.01 20.41 10.35 20 10.35C19.59 10.35 19.25 10.01 19.25 9.6C19.25 6.02 17.98 4.75 14.4 4.75H9.6C6.02 4.75 4.75 6.02 4.75 9.6V14.4C4.75 17.98 6.02 19.25 9.6 19.25C10.01 19.25 10.35 19.59 10.35 20C10.35 20.41 10.01 20.75 9.6 20.75Z" fill="#404040"/>
<path d="M7.99023 17.1C7.83023 17.1 7.66023 17.05 7.52023 16.94C6.65023 16.25 6.24023 15.15 6.24023 13.5V10.5C6.24023 7.6 7.59023 6.25 10.4902 6.25H13.4902C15.1402 6.25 16.2302 6.66 16.9302 7.53C17.1902 7.85 17.1302 8.33 16.8102 8.58C16.4902 8.84 16.0102 8.79 15.7602 8.46C15.5202 8.15 15.0202 7.75 13.5002 7.75H10.5002C8.42023 7.75 7.75023 8.42 7.75023 10.5V13.5C7.75023 15.02 8.16023 15.52 8.46023 15.76C8.78023 16.02 8.84023 16.49 8.58023 16.81C8.43023 17 8.21023 17.1 7.99023 17.1Z" fill="#404040"/>
<path d="M8.00977 4.75C7.58977 4.75 7.25977 4.41 7.25977 4V2C7.25977 1.59 7.59977 1.25 8.00977 1.25C8.41977 1.25 8.75977 1.59 8.75977 2V4C8.75977 4.41 8.41977 4.75 8.00977 4.75Z" fill="#404040"/>
<path d="M12 4.75C11.59 4.75 11.25 4.41 11.25 4V2C11.25 1.59 11.59 1.25 12 1.25C12.41 1.25 12.75 1.59 12.75 2V4C12.75 4.41 12.41 4.75 12 4.75Z" fill="#404040"/>
<path d="M16 4.75C15.59 4.75 15.25 4.41 15.25 4V2C15.25 1.59 15.59 1.25 16 1.25C16.41 1.25 16.75 1.59 16.75 2V4C16.75 4.41 16.41 4.75 16 4.75Z" fill="#404040"/>
<path d="M22 8.75H20C19.59 8.75 19.25 8.41 19.25 8C19.25 7.59 19.59 7.25 20 7.25H22C22.41 7.25 22.75 7.59 22.75 8C22.75 8.41 22.42 8.75 22 8.75Z" fill="#404040"/>
<path d="M8.00977 22.75C7.59977 22.75 7.25977 22.41 7.25977 22V20C7.25977 19.59 7.59977 19.25 8.00977 19.25C8.41977 19.25 8.75977 19.59 8.75977 20V22C8.75977 22.41 8.41977 22.75 8.00977 22.75Z" fill="#404040"/>
<path d="M4 8.75H2C1.59 8.75 1.25 8.42 1.25 8C1.25 7.58 1.59 7.25 2 7.25H4C4.41 7.25 4.75 7.59 4.75 8C4.75 8.41 4.42 8.75 4 8.75Z" fill="#404040"/>
<path d="M4 12.75H2C1.59 12.75 1.25 12.41 1.25 12C1.25 11.59 1.59 11.25 2 11.25H4C4.41 11.25 4.75 11.59 4.75 12C4.75 12.41 4.42 12.75 4 12.75Z" fill="#404040"/>
<path d="M4 16.75H2C1.59 16.75 1.25 16.41 1.25 16C1.25 15.59 1.59 15.25 2 15.25H4C4.41 15.25 4.75 15.59 4.75 16C4.75 16.41 4.42 16.75 4 16.75Z" fill="#404040"/>
<path d="M16.7101 19.3402C15.4201 19.3402 14.3701 18.2902 14.3701 17.0002C14.3701 15.7102 15.4201 14.6602 16.7101 14.6602C18.0001 14.6602 19.0501 15.7102 19.0501 17.0002C19.0401 18.2902 18.0001 19.3402 16.7101 19.3402ZM16.7101 16.1602C16.2501 16.1602 15.8701 16.5402 15.8701 17.0002C15.8701 17.4602 16.2501 17.8402 16.7101 17.8402C17.1701 17.8402 17.5501 17.4602 17.5501 17.0002C17.5401 16.5402 17.1701 16.1602 16.7101 16.1602Z" fill="#404040"/>
<path d="M18.3994 22.7501C17.8394 22.7501 17.2894 22.4601 16.9894 21.9401L16.9194 21.8301C16.8094 21.6401 16.7194 21.5901 16.6994 21.5801C16.6894 21.5801 16.5894 21.6401 16.4794 21.8301L16.4194 21.9301C15.9594 22.7201 14.9494 22.9801 14.1794 22.5201L13.2794 22.0001C12.8694 21.7701 12.5794 21.3901 12.4594 20.9301C12.3394 20.4801 12.3994 20.0001 12.6294 19.6001C12.7394 19.4101 12.7394 19.3001 12.7294 19.2801C12.7194 19.2701 12.6294 19.2201 12.4094 19.2201C11.4394 19.2201 10.6494 18.4301 10.6494 17.4701V16.5401C10.6494 15.5701 11.4394 14.7901 12.3994 14.7901C12.6194 14.7901 12.7094 14.7301 12.7294 14.7201C12.7294 14.7101 12.7294 14.6001 12.6194 14.4101C12.3894 14.0001 12.3194 13.5301 12.4494 13.0801C12.5694 12.6301 12.8594 12.2501 13.2694 12.0101L14.1794 11.4801C14.9394 11.0301 15.9494 11.2901 16.3994 12.0701L16.4594 12.1801C16.5694 12.3701 16.6594 12.4201 16.6794 12.4301C16.6894 12.4301 16.7894 12.3701 16.8994 12.1801L16.9594 12.0801C17.4294 11.2901 18.4294 11.0301 19.1994 11.4901L20.1294 12.0001C20.5394 12.2301 20.8294 12.6101 20.9494 13.0701C21.0694 13.5201 21.0094 14.0001 20.7794 14.4001C20.6694 14.5901 20.6694 14.7001 20.6794 14.7201C20.6894 14.7301 20.7794 14.7801 20.9994 14.7801C21.9694 14.7801 22.7594 15.5701 22.7594 16.5301V17.4601C22.7594 18.4301 21.9694 19.2101 21.0094 19.2101C20.7894 19.2101 20.6994 19.2701 20.6794 19.2801C20.6794 19.2901 20.6794 19.4001 20.7894 19.5901C21.0194 20.0001 21.0894 20.4701 20.9594 20.9201C20.8394 21.3701 20.5494 21.7501 20.1394 21.9901L19.2294 22.5201C18.9594 22.6701 18.6794 22.7501 18.3994 22.7501ZM16.7094 20.0801C17.3094 20.0801 17.8594 20.4401 18.2294 21.0801L18.2894 21.1901C18.3194 21.2401 18.3994 21.2701 18.4594 21.2301L19.3794 20.7001C19.4594 20.6601 19.4894 20.5801 19.4994 20.5401C19.5094 20.5001 19.5194 20.4301 19.4794 20.3501C19.1094 19.7201 19.0794 19.0601 19.3794 18.5401C19.6794 18.0201 20.2694 17.7201 20.9994 17.7201C21.1394 17.7201 21.2594 17.6001 21.2594 17.4701V16.5401C21.2594 16.4001 21.1394 16.2901 21.0094 16.2901C20.2794 16.2901 19.6794 15.9901 19.3894 15.4701C19.0894 14.9501 19.1294 14.2901 19.4894 13.6601C19.5394 13.5801 19.5294 13.5001 19.5094 13.4701C19.4994 13.4301 19.4694 13.3601 19.3894 13.3101L18.4794 12.7801C18.4094 12.7401 18.3294 12.7701 18.2894 12.8301L18.2394 12.9201C17.8694 13.5601 17.3194 13.9201 16.7194 13.9201C16.1194 13.9201 15.5694 13.5601 15.1994 12.9201L15.1394 12.8201C15.1094 12.7601 15.0194 12.7401 14.9694 12.7701L14.0494 13.3001C13.9694 13.3401 13.9394 13.4201 13.9294 13.4601C13.9194 13.5001 13.9094 13.5701 13.9494 13.6501C14.3194 14.2801 14.3494 14.9401 14.0494 15.4601C13.7494 15.9801 13.1594 16.2801 12.4294 16.2801C12.2894 16.2801 12.1694 16.4001 12.1694 16.5301V17.4601C12.1694 17.6001 12.2894 17.7101 12.4194 17.7101C13.1494 17.7101 13.7494 18.0101 14.0394 18.5301C14.3394 19.0501 14.2994 19.7101 13.9394 20.3401C13.8994 20.4201 13.9094 20.4901 13.9194 20.5301C13.9294 20.5701 13.9594 20.6401 14.0394 20.6901L14.9494 21.2201C15.0194 21.2601 15.0994 21.2301 15.1394 21.1701L15.1894 21.0701C15.5494 20.4401 16.1094 20.0801 16.7094 20.0801Z" fill="#404040"/>
</g>
</g>
<defs>
<clipPath id="clip0_12074_125651">
<rect width="24" height="24" fill="white"/>
</clipPath>
</defs>
</svg>
