<svg width="24" height="24" viewBox="0 0 24 24" fill="none" xmlns="http://www.w3.org/2000/svg">
<g clip-path="url(#clip0_12074_125129)">
<mask id="mask0_12074_125129" style="mask-type:luminance" maskUnits="userSpaceOnUse" x="0" y="0" width="24" height="24">
<path d="M24 0H0V24H24V0Z" fill="white"/>
</mask>
<g mask="url(#mask0_12074_125129)">
<path d="M15 22.75H9C3.57 22.75 1.25 20.43 1.25 15V9C1.25 3.57 3.57 1.25 9 1.25H15C20.43 1.25 22.75 3.57 22.75 9V15C22.75 20.43 20.43 22.75 15 22.75ZM9 2.75C4.39 2.75 2.75 4.39 2.75 9V15C2.75 19.61 4.39 21.25 9 21.25H15C19.61 21.25 21.25 19.61 21.25 15V9C21.25 4.39 19.61 2.75 15 2.75H9Z" fill="#404040"/>
<path d="M9.68 16.78H8.19C7.12 16.78 6.25 15.91 6.25 14.84V12.1699C6.25 11.7599 6.59 11.4199 7 11.4199H9.68C10.77 11.4199 11.62 12.2699 11.62 13.3599V14.8499C11.61 15.9199 10.76 16.78 9.68 16.78ZM7.75 12.9099V14.83C7.75 15.07 7.95 15.27 8.19 15.27H9.68C10 15.27 10.12 15.03 10.12 14.83V13.34C10.12 13.14 10.01 12.9 9.68 12.9H7.75V12.9099Z" fill="#404040"/>
<path d="M7 12.9102C6.59 12.9102 6.25 12.5702 6.25 12.1602C6.25 9.08022 6.92 8.39027 8.71 7.33027C9.06 7.12027 9.53 7.24028 9.74 7.59028C9.95 7.94028 9.83 8.41024 9.48 8.62024C8.12 9.43024 7.75 9.64022 7.75 12.1602C7.75 12.5802 7.41 12.9102 7 12.9102Z" fill="#404040"/>
<path d="M15.8099 16.78H14.3199C13.2499 16.78 12.3799 15.91 12.3799 14.84V12.1699C12.3799 11.7599 12.7199 11.4199 13.1299 11.4199H15.8099C16.8999 11.4199 17.7499 12.2699 17.7499 13.3599V14.8499C17.7499 15.9199 16.8999 16.78 15.8099 16.78ZM13.8899 12.9099V14.83C13.8899 15.07 14.0899 15.27 14.3299 15.27H15.8199C16.1399 15.27 16.2599 15.03 16.2599 14.83V13.34C16.2599 13.14 16.1499 12.9 15.8199 12.9H13.8899V12.9099Z" fill="#404040"/>
<path d="M13.1396 12.9102C12.7296 12.9102 12.3896 12.5702 12.3896 12.1602C12.3896 9.08022 13.0596 8.39027 14.8496 7.33027C15.2096 7.12027 15.6696 7.24028 15.8796 7.59028C16.0896 7.94028 15.9696 8.41024 15.6196 8.62024C14.2596 9.43024 13.8896 9.64022 13.8896 12.1602C13.8896 12.5802 13.5496 12.9102 13.1396 12.9102Z" fill="#404040"/>
</g>
</g>
<defs>
<clipPath id="clip0_12074_125129">
<rect width="24" height="24" fill="white"/>
</clipPath>
</defs>
</svg>
